<?xml version="1.0" encoding="UTF-8" standalone="no"?>
<!-- Created with Inkscape (http://www.inkscape.org/) -->

<svg
   width="107.77215mm"
   height="18.719788mm"
   viewBox="0 0 107.77215 18.719788"
   version="1.1"
   id="svg1"
   xml:space="preserve"
   xmlns="http://www.w3.org/2000/svg"
   xmlns:svg="http://www.w3.org/2000/svg"><defs
     id="defs1" /><g
     id="layer1"
     style="display:inline"
     transform="translate(-66.901255,-171.30613)"><g
       id="g2"
       transform="matrix(0.37386617,0,0,0.44462264,208.06149,-48.458898)"
       style="display:inline;fill:#ff0000"><path
         d="M -240.69427,535.87847 V 508.1147 h 10.39464 v 27.76377 z"
         id="text3"
         style="font-weight:bold;font-size:25.4px;font-family:Outfit;-inkscape-font-specification:'Outfit Bold';display:inline;fill:#ff0000;stroke-width:0.648945"
         aria-label="i" /><g
         id="g10"
         transform="matrix(0.70769531,0,0,0.59507391,-284.23111,499.33877)"><polygon
           points="20,15 15,15 15,20 10,20 10,15 5,15 5,10 10,10 10,5 15,5 15,10 20,10 "
           id="polygon1-2"
           transform="translate(97.228333,25.612579)" /></g><path
         d="M -346.22507,584.24872 V 553.9715 h 9.53172 v 30.27722 z m 19.37493,0 v -17.69286 c 0,-1.53671 -0.47762,-2.72038 -1.43287,-3.55103 -0.91372,-0.87219 -2.05587,-1.30828 -3.42644,-1.30828 -0.95525,0 -1.80666,0.20766 -2.55425,0.62299 -0.74759,0.37379 -1.34981,0.91372 -1.80666,1.61977 -0.41533,0.70605 -0.62299,1.57824 -0.62299,2.61655 l -3.67563,-1.61977 c 0,-2.40889 0.51916,-4.46475 1.55747,-6.16758 1.03831,-1.74437 2.45042,-3.07341 4.23632,-3.98712 1.7859,-0.95525 3.80023,-1.43288 6.04298,-1.43288 2.11816,0 4.00789,0.47763 5.66919,1.43288 1.70283,0.95525 3.05264,2.28429 4.04943,3.98712 0.99678,1.70283 1.49517,3.73793 1.49517,6.10528 v 19.37493 z m 19.37493,0 v -17.69286 c 0,-1.53671 -0.47763,-2.72038 -1.43288,-3.55103 -0.91371,-0.87219 -2.05586,-1.30828 -3.42643,-1.30828 -0.95525,0 -1.80666,0.20766 -2.55425,0.62299 -0.74759,0.37379 -1.34981,0.91372 -1.80667,1.61977 -0.41532,0.70605 -0.62298,1.57824 -0.62298,2.61655 l -5.4823,-0.74759 c 0.0831,-2.57501 0.68529,-4.77624 1.80667,-6.60367 1.16291,-1.86897 2.67884,-3.30184 4.54781,-4.29862 1.91049,-1.03831 4.04942,-1.55747 6.41678,-1.55747 2.32582,0 4.38168,0.49839 6.16758,1.49517 1.82743,0.95525 3.2603,2.34659 4.29861,4.17402 1.07985,1.7859 1.61977,3.94559 1.61977,6.47908 v 18.75194 z m 30.58866,0.68529 c -3.28107,0 -6.20912,-0.66452 -8.78413,-1.99357 -2.53349,-1.37057 -4.52705,-3.2603 -5.98069,-5.66919 -1.45364,-2.40889 -2.18046,-5.12927 -2.18046,-8.16114 0,-3.03187 0.70605,-5.73149 2.11816,-8.09884 1.45364,-2.40889 3.40567,-4.29863 5.85609,-5.6692 2.45042,-1.37057 5.21233,-2.05586 8.28574,-2.05586 2.99034,0 5.62766,0.64376 7.91195,1.93127 2.28429,1.28751 4.07019,3.0734 5.3577,5.35769 1.32904,2.28429 1.99356,4.90084 1.99356,7.84965 0,0.53993 -0.0415,1.12138 -0.1246,1.74437 -0.0415,0.58145 -0.14536,1.26674 -0.31149,2.05586 l -26.1032,0.0623 v -6.54138 l 22.05377,-0.0623 -4.11172,2.74114 c -0.0415,-1.74437 -0.31149,-3.17724 -0.80988,-4.29861 -0.49839,-1.16291 -1.24598,-2.0351 -2.24276,-2.61655 -0.95525,-0.62299 -2.13892,-0.93449 -3.55103,-0.93449 -1.49517,0 -2.80345,0.35303 -3.92483,1.05908 -1.07984,0.66452 -1.93126,1.61977 -2.55425,2.86575 -0.58145,1.24597 -0.87218,2.76191 -0.87218,4.54781 0,1.7859 0.31149,3.3226 0.93448,4.61011 0.66452,1.24598 1.57824,2.222 2.74115,2.92805 1.20445,0.66452 2.61655,0.99678 4.23632,0.99678 1.49517,0 2.84498,-0.2492 4.04942,-0.74759 1.20445,-0.53992 2.26353,-1.32904 3.17724,-2.36735 l 5.2331,5.2331 c -1.49517,1.74437 -3.30184,3.05264 -5.42,3.92482 -2.11816,0.87219 -4.44398,1.30828 -6.97746,1.30828 z m 32.0839,-0.0623 c -2.86575,0 -5.42,-0.68529 -7.66275,-2.05586 -2.20123,-1.37057 -3.94559,-3.23954 -5.2331,-5.6069 -1.24598,-2.36735 -1.86897,-5.06697 -1.86897,-8.09884 0,-3.03187 0.62299,-5.73149 1.86897,-8.09884 1.28751,-2.36736 3.03187,-4.23633 5.2331,-5.6069 2.24275,-1.37057 4.797,-2.05586 7.66275,-2.05586 2.07663,0 3.94559,0.39456 5.60689,1.18368 1.70283,0.78912 3.09417,1.88973 4.17402,3.30184 1.12138,1.37057 1.74437,2.94881 1.86897,4.73471 v 12.77125 c -0.1246,1.7859 -0.72682,3.40567 -1.80667,4.85931 -1.07985,1.41211 -2.47119,2.55425 -4.17402,3.42643 -1.70283,0.83065 -3.59256,1.24598 -5.66919,1.24598 z m 1.68207,-8.59724 c 1.37057,0 2.55425,-0.29073 3.55103,-0.87218 0.99678,-0.62299 1.7859,-1.4744 2.36735,-2.55425 0.58146,-1.07985 0.87219,-2.32582 0.87219,-3.73793 0,-1.41211 -0.29073,-2.63732 -0.87219,-3.67563 -0.53992,-1.07985 -1.32904,-1.93126 -2.36735,-2.55425 -0.99678,-0.62299 -2.15969,-0.93448 -3.48873,-0.93448 -1.32905,0 -2.51273,0.31149 -3.55104,0.93448 -0.99678,0.62299 -1.80666,1.4744 -2.42965,2.55425 -0.58145,1.07985 -0.87218,2.30506 -0.87218,3.67563 0,1.37057 0.29073,2.59578 0.87218,3.67563 0.58145,1.07985 1.39134,1.93126 2.42965,2.55425 1.03831,0.62299 2.20123,0.93448 3.48874,0.93448 z m 15.76159,7.97425 h -9.34482 v -8.16114 l 1.43288,-7.35126 -1.61977,-7.35126 v -22.36527 h 9.53171 z m 37.62842,0.68529 c -3.11494,0 -5.93915,-0.68529 -8.47264,-2.05587 -2.53348,-1.37057 -4.52704,-3.2603 -5.98068,-5.66919 -1.45364,-2.40889 -2.18046,-5.1085 -2.18046,-8.09884 0,-3.03187 0.72682,-5.73149 2.18046,-8.09884 1.49517,-2.40889 3.50949,-4.29863 6.04298,-5.6692 2.53349,-1.37057 5.37847,-2.05586 8.53494,-2.05586 2.36735,0 4.52704,0.41533 6.47907,1.24598 1.99356,0.78912 3.75869,1.99356 5.2954,3.61333 l -6.10528,6.10528 c -0.70605,-0.78911 -1.5367,-1.37057 -2.49195,-1.74436 -0.91372,-0.37379 -1.9728,-0.56069 -3.17724,-0.56069 -1.37057,0 -2.59578,0.31149 -3.67563,0.93448 -1.03831,0.58145 -1.86896,1.4121 -2.49195,2.49195 -0.58146,1.03831 -0.87219,2.26352 -0.87219,3.67563 0,1.41211 0.29073,2.65808 0.87219,3.73793 0.62299,1.07985 1.4744,1.93126 2.55425,2.55425 1.07985,0.62299 2.28429,0.93448 3.61333,0.93448 1.24597,0 2.34658,-0.20766 3.30183,-0.62299 0.99678,-0.45685 1.8482,-1.07984 2.55425,-1.86896 l 6.04299,6.10528 c -1.57824,1.6613 -3.36414,2.92804 -5.3577,3.80023 -1.99356,0.83065 -4.21555,1.24598 -6.66597,1.24598 z m 28.15913,-0.0623 c -2.78268,0 -5.27463,-0.68529 -7.47585,-2.05586 -2.15969,-1.37057 -3.88329,-3.23954 -5.1708,-5.6069 -1.24598,-2.36735 -1.86897,-5.06697 -1.86897,-8.09884 0,-3.03187 0.62299,-5.73149 1.86897,-8.09884 1.28751,-2.36736 3.01111,-4.23633 5.1708,-5.6069 2.20122,-1.37057 4.69317,-2.05586 7.47585,-2.05586 2.03509,0 3.86253,0.39456 5.4823,1.18368 1.6613,0.78912 3.01111,1.88973 4.04942,3.30184 1.03831,1.37057 1.61977,2.94881 1.74437,4.73471 v 13.08274 c -0.1246,1.7859 -0.70606,3.3849 -1.74437,4.79701 -0.99678,1.37057 -2.32582,2.45042 -3.98712,3.23954 -1.66131,0.78912 -3.50951,1.18368 -5.5446,1.18368 z m 1.93127,-8.59724 c 2.03509,0 3.67563,-0.66452 4.9216,-1.99356 1.24597,-1.37057 1.86896,-3.09417 1.86896,-5.1708 0,-1.41211 -0.29073,-2.65808 -0.87218,-3.73793 -0.53992,-1.07985 -1.32904,-1.9105 -2.36735,-2.49195 -0.99678,-0.62299 -2.15969,-0.93448 -3.48874,-0.93448 -1.32904,0 -2.51272,0.31149 -3.55103,0.93448 -0.99678,0.58145 -1.80666,1.4121 -2.42965,2.49195 -0.58145,1.07985 -0.87218,2.32582 -0.87218,3.73793 0,1.37057 0.29073,2.59578 0.87218,3.67563 0.58145,1.07985 1.39134,1.93126 2.42965,2.55425 1.03831,0.62299 2.20123,0.93448 3.48874,0.93448 z m 6.41677,7.97425 v -8.16114 l 1.43287,-7.35126 -1.43287,-7.35126 v -7.41356 h 9.34482 v 30.27722 z m 16.07305,0 V 553.9715 h 9.53172 v 30.27722 z m 9.53172,-16.63378 -3.98712,-3.11494 c 0.78912,-3.53027 2.11816,-6.27141 3.98712,-8.22344 1.86897,-1.95203 4.46475,-2.92805 7.78735,-2.92805 1.45364,0 2.72038,0.22843 3.80023,0.68529 1.12138,0.41533 2.09739,1.07985 2.92804,1.99356 l -5.66919,7.16436 c -0.41533,-0.45685 -0.93448,-0.80988 -1.55747,-1.05908 -0.62299,-0.24919 -1.32904,-0.37379 -2.11816,-0.37379 -1.57823,0 -2.84498,0.49839 -3.80023,1.49517 -0.91371,0.95525 -1.37057,2.40889 -1.37057,4.36092 z m 31.149398,17.31907 c -3.281072,0 -6.209118,-0.66452 -8.784128,-1.99357 -2.53349,-1.37057 -4.52705,-3.2603 -5.98069,-5.66919 -1.45364,-2.40889 -2.18046,-5.12927 -2.18046,-8.16114 0,-3.03187 0.70605,-5.73149 2.11816,-8.09884 1.45364,-2.40889 3.40567,-4.29863 5.85609,-5.6692 2.45042,-1.37057 5.21233,-2.05586 8.285741,-2.05586 2.990343,0 5.627659,0.64376 7.911948,1.93127 2.284289,1.28751 4.070188,3.0734 5.357697,5.35769 1.329041,2.28429 1.993561,4.90084 1.993561,7.84965 0,0.53993 -0.04153,1.12138 -0.124597,1.74437 -0.04153,0.58145 -0.145365,1.26674 -0.311494,2.05586 l -26.103196,0.0623 v -6.54138 l 22.053773,-0.0623 -4.11172,2.74114 c -0.04153,-1.74437 -0.311495,-3.17724 -0.809885,-4.29861 -0.49839,-1.16291 -1.245976,-2.0351 -2.242757,-2.61655 -0.955248,-0.62299 -2.138925,-0.93449 -3.551031,-0.93449 -1.495171,0 -2.803445,0.35303 -3.92482,1.05908 -1.07985,0.66452 -1.93127,1.61977 -2.55426,2.86575 -0.58145,1.24597 -0.87218,2.76191 -0.87218,4.54781 0,1.7859 0.31149,3.3226 0.93448,4.61011 0.66452,1.24598 1.57824,2.222 2.74115,2.92805 1.204444,0.66452 2.61655,0.99678 4.236319,0.99678 1.495171,0 2.844979,-0.2492 4.049422,-0.74759 1.204443,-0.53992 2.263523,-1.32904 3.177239,-2.36735 l 5.233099,5.2331 c -1.495171,1.74437 -3.301837,3.05264 -5.419996,3.92482 -2.118159,0.87219 -4.44398,1.30828 -6.977465,1.30828 z"
         id="text12"
         style="-inkscape-font-specification:'Outfit Bold';fill:#000000;stroke-width:0.648946"
         transform="scale(1.0905302,0.91698514)"
         aria-label="medicare" /></g><g
       id="g11"
       transform="matrix(0.29422587,0,0,0.25813809,59.373441,135.85861)"><path
         d="m 202.37924,199.37998 c -2.55922,1.78047 -4.31902,5.23377 -2.91601,8.26563 0.0402,1.69272 2.69106,2.04212 1.90625,0.0488 -1.49941,-1.93473 -0.64597,-4.63892 1.10156,-6.08008 1.27384,-0.82372 1.56736,-1.64902 -0.0918,-2.23438 z"
         style="fill:#000000;stroke-width:1.00157"
         id="path30" /><path
         d="m 210.01987,186.40928 c -1.21498,0.42399 -2.17546,1.30608 -0.4375,1.9375 1.50722,1.08514 2.79307,3.2221 1.60937,4.9961 -0.28822,1.50972 -4.42814,2.54253 -1.62305,3.55664 1.92317,-0.12841 3.72445,-3.08178 3.71094,-5.17188 0.0243,-2.22908 -1.52816,-4.09363 -3.25976,-5.31836 z"
         style="fill:#000000;stroke-width:1.00157"
         id="path29" /><path
         d="m 210.01987,186.40928 c 1.7316,1.22473 3.28406,3.08928 3.25976,5.31836 0.0135,2.0901 -1.78777,5.04347 -3.71094,5.17188 -2.80509,-1.01411 1.33483,-2.04692 1.62305,-3.55664 1.1837,-1.774 -0.10215,-3.91096 -1.60937,-4.9961 -1.73796,-0.63142 -0.77748,-1.51351 0.4375,-1.9375 z"
         style="fill:#000000;stroke-width:1.00157"
         id="path28" /><path
         d="m 201.05307,174.03038 c -2.1986,1.67443 -2.94524,4.95587 -1.39453,7.3164 0.67229,1.11464 2.79873,3.99508 3.65234,1.82422 -0.61253,-1.51138 -2.9716,-2.52812 -2.86914,-4.60742 -0.45035,-1.80594 2.337,-3.32142 2.51758,-4.00586 -0.63877,-0.1642 -1.27454,-0.3377 -1.90625,-0.52734 z"
         style="fill:#000000;stroke-width:1.00157"
         id="path27" /><path
         d="m 197.57065,160.50304 c -0.09,7e-4 -0.18178,0.007 -0.27344,0.0195 -1.97678,0.10168 -4.36445,1.54957 -3.875,4.94921 1.16096,4.13953 5.51496,6.15992 9.37109,7.09375 3.1972,0.71307 7.00435,1.61353 8.55664,4.85547 1.16527,2.29931 -0.86975,4.51215 -2.74023,5.62305 -3.0049,1.80273 -6.82627,2.7043 -8.77344,5.88281 -1.66117,2.44785 -0.64939,5.82021 1.59375,7.53125 2.90953,2.57257 7.33234,3.12743 9.5293,6.56445 1.93313,1.9189 -0.51606,4.19462 0.0781,6.01953 2.26045,0.20281 2.58511,-3.81939 1.95313,-5.5664 -1.23897,-3.63069 -4.92671,-5.45322 -8.1875,-6.93359 -1.92608,-1.07405 -4.34333,-2.66965 -4.1875,-5.16797 0.70483,-2.88298 3.71581,-4.27317 6.19726,-5.36914 2.93614,-1.30331 6.3939,-3.51675 6.47657,-7.10352 -0.0854,-3.92679 -3.81537,-6.62575 -7.33985,-7.44727 -3.48377,-0.92021 -7.4968,-1.5636 -9.89843,-4.52343 2.31728,-2.64725 1.8124,-0.78057 3.28125,-3.81055 0.69345,-1.32114 -0.41228,-2.6277 -1.76172,-2.61719 z"
         style="fill:#000000;stroke-width:1.00157"
         id="path26" /><path
         d="m 214.39096,160.47765 c -2.1964,0.20345 -1.93921,3.30051 -0.16406,4.2207 1.35382,0.44148 3.17524,1.85355 1.2832,3.07031 -1.74388,1.55147 -4.00936,2.29423 -6.2168,2.91016 1.73562,1.78753 3.7364,1.00451 5.59766,-0.22852 2.24643,-1.27058 5.06429,-4.83337 4.10547,-7.30078 -1.39018,-2.5099 -2.42257,-2.62956 -4.13281,-2.67187 -0.16852,-0.0137 -0.32623,-0.0136 -0.47266,0 z"
         style="fill:#000000;stroke-width:1.00157"
         id="path25" /></g><circle
       style="fill:#000000;fill-opacity:1;stroke:none;stroke-width:0.264999;stroke-dasharray:none;stroke-opacity:1"
       id="path31"
       cx="119.98167"
       cy="174.45958"
       r="2.2330828" /></g></svg>
